<svg width="66" height="66" viewBox="0 0 66 66" fill="none" xmlns="http://www.w3.org/2000/svg">
<g clip-path="url(#clip0_12_189)">
<path d="M33 0C29.7536 0 27.6705 2.442 26.5155 4.74788C25.3728 7.12932 24.77 9.73367 24.75 12.375V27.6004L16.5 31.7254V30.9375C16.5 30.3905 16.2827 29.8659 15.8959 29.4791C15.5091 29.0923 14.9845 28.875 14.4375 28.875H10.3125C9.76549 28.875 9.24089 29.0923 8.85409 29.4791C8.4673 29.8659 8.25 30.3905 8.25 30.9375V35.8504L3.42375 38.2635C2.39511 38.777 1.5299 39.567 0.925148 40.5448C0.320399 41.5226 3.88369e-05 42.6496 0 43.7993L0 49.5C0.000137816 49.7994 0.0654543 50.0952 0.191412 50.3668C0.31737 50.6384 0.500948 50.8793 0.729396 51.0728C0.957843 51.2663 1.22568 51.4078 1.5143 51.4874C1.80293 51.5669 2.10541 51.5827 2.40075 51.5336L9.12862 50.4116L10.4198 54.2767C10.5573 54.6864 10.82 55.0425 11.1708 55.2948C11.5217 55.5471 11.9429 55.6828 12.375 55.6828C12.8071 55.6828 13.2283 55.5471 13.5792 55.2948C13.93 55.0425 14.1927 54.6864 14.3302 54.2767L16.0009 49.269L25.1171 47.7469L26.664 57.0405L21.2272 62.4772C20.9381 62.7657 20.741 63.1335 20.6611 63.5341C20.5813 63.9347 20.6221 64.35 20.7785 64.7273C20.9349 65.1046 21.1999 65.427 21.5397 65.6536C21.8796 65.8802 22.279 66.0007 22.6875 66H43.3125C43.721 66.0007 44.1204 65.8802 44.4603 65.6536C44.8002 65.427 45.0651 65.1046 45.2215 64.7273C45.3779 64.35 45.4187 63.9347 45.3389 63.5341C45.259 63.1335 45.0619 62.7657 44.7728 62.4772L39.336 57.0405L40.8829 47.7469L49.9991 49.269L51.6698 54.2767C51.8073 54.6864 52.07 55.0425 52.4208 55.2948C52.7717 55.5471 53.1929 55.6828 53.625 55.6828C54.0571 55.6828 54.4783 55.5471 54.8292 55.2948C55.18 55.0425 55.4427 54.6864 55.5802 54.2767L56.8714 50.4116L63.5951 51.5336C63.8908 51.5834 64.1937 51.5681 64.4828 51.4888C64.772 51.4096 65.0404 51.2682 65.2693 51.0746C65.4982 50.8811 65.6822 50.6399 65.8084 50.3679C65.9346 50.096 66 49.7998 66 49.5V43.7993C66 42.6496 65.6796 41.5226 65.0749 40.5448C64.4701 39.567 63.6049 38.777 62.5763 38.2635L57.75 35.8504V30.9375C57.75 30.3905 57.5327 29.8659 57.1459 29.4791C56.7591 29.0923 56.2345 28.875 55.6875 28.875H51.5625C51.0155 28.875 50.4909 29.0923 50.1041 29.4791C49.7173 29.8659 49.5 30.3905 49.5 30.9375V31.7254L41.25 27.6004V12.375C41.25 10.032 40.6725 7.13212 39.4845 4.74788C38.3295 2.43788 36.2464 0 33 0ZM28.875 12.375C28.875 10.593 29.3288 8.33663 30.2033 6.59587C31.1108 4.78087 32.1214 4.125 33 4.125C33.8786 4.125 34.8893 4.77675 35.7968 6.59587C36.6671 8.3325 37.125 10.5971 37.125 12.375V28.875C37.125 29.2577 37.2315 29.6329 37.4326 29.9585C37.6336 30.2841 37.9213 30.5474 38.2635 30.7189L60.7365 41.9554C61.0787 42.1268 61.3664 42.3901 61.5674 42.7157C61.7685 43.0414 61.875 43.4165 61.875 43.7993V47.0662L39.5257 43.3414C38.987 43.2518 38.4348 43.3796 37.9902 43.6967C37.5455 44.0137 37.2448 44.4941 37.1539 45.0326L35.0914 57.4076C35.0367 57.7324 35.0606 58.0655 35.1611 58.3791C35.2616 58.6927 35.4357 58.9777 35.6689 59.2103L38.3336 61.875H27.6664L30.3353 59.2103C30.5678 58.9781 30.7415 58.6938 30.842 58.381C30.9424 58.0682 30.9667 57.7359 30.9128 57.4118L28.8503 45.0368C28.8057 44.7693 28.7089 44.5133 28.5654 44.2833C28.4219 44.0534 28.2344 43.854 28.0137 43.6965C27.793 43.539 27.5435 43.4266 27.2793 43.3657C27.0152 43.3047 26.7416 43.2965 26.4743 43.3414L4.125 47.0662V43.7993C4.12501 43.4165 4.23151 43.0414 4.43257 42.7157C4.63364 42.3901 4.92134 42.1268 5.2635 41.9554L27.7365 30.7189C28.0787 30.5474 28.3664 30.2841 28.5674 29.9585C28.7685 29.6329 28.875 29.2577 28.875 28.875V12.375Z" fill="#0FA1AC"/>
</g>
<defs>
<clipPath id="clip0_12_189">
<rect width="66" height="66" fill="white"/>
</clipPath>
</defs>
</svg>
