<svg width="88" height="88" viewBox="0 0 88 88" fill="none" xmlns="http://www.w3.org/2000/svg">
<path d="M29.3333 63.6667C31.2783 63.6667 33.1435 62.894 34.5188 61.5188C35.894 60.1435 36.6667 58.2783 36.6667 56.3333C36.6667 54.3884 35.894 52.5232 34.5188 51.1479C33.1435 49.7726 31.2783 49 29.3333 49C27.3884 49 25.5231 49.7726 24.1479 51.1479C22.7726 52.5232 22 54.3884 22 56.3333C22 58.2783 22.7726 60.1435 24.1479 61.5188C25.5231 62.894 27.3884 63.6667 29.3333 63.6667ZM66 63.6667C67.9449 63.6667 69.8102 62.894 71.1854 61.5188C72.5607 60.1435 73.3333 58.2783 73.3333 56.3333C73.3333 54.3884 72.5607 52.5232 71.1854 51.1479C69.8102 49.7726 67.9449 49 66 49C64.0551 49 62.1898 49.7726 60.8145 51.1479C59.4393 52.5232 58.6667 54.3884 58.6667 56.3333C58.6667 58.2783 59.4393 60.1435 60.8145 61.5188C62.1898 62.894 64.0551 63.6667 66 63.6667Z" stroke="#0FA1AC" stroke-width="4" stroke-miterlimit="1.5" stroke-linecap="round" stroke-linejoin="round"/>
<path d="M36.8501 56.3333H55.0001V18.2C55.0001 17.6165 54.7683 17.0569 54.3557 16.6444C53.9431 16.2318 53.3836 16 52.8001 16H3.66675M20.7167 56.3333H13.2001C12.9112 56.3333 12.6251 56.2764 12.3582 56.1659C12.0913 56.0553 11.8487 55.8933 11.6444 55.689C11.4402 55.4847 11.2781 55.2422 11.1675 54.9752C11.057 54.7083 11.0001 54.4222 11.0001 54.1333V36.1667" stroke="#0FA1AC" stroke-width="4" stroke-linecap="round"/>
<path d="M7.3335 27H22.0002" stroke="#0FA1AC" stroke-width="4" stroke-linecap="round" stroke-linejoin="round"/>
<path d="M55 27H75.57C75.9953 27.0001 76.4114 27.1235 76.768 27.3551C77.1246 27.5868 77.4064 27.9168 77.5793 28.3053L84.1427 43.0747C84.2677 43.3551 84.3327 43.6586 84.3333 43.9657V54.1333C84.3333 54.4222 84.2764 54.7083 84.1659 54.9752C84.0553 55.2422 83.8933 55.4847 83.689 55.689C83.4847 55.8933 83.2422 56.0553 82.9752 56.1659C82.7083 56.2764 82.4222 56.3333 82.1333 56.3333H75.1667M55 56.3333H58.6667" stroke="#0FA1AC" stroke-width="4" stroke-linecap="round"/>
</svg>
