<svg width="72" height="72" viewBox="0 0 72 72" fill="none" xmlns="http://www.w3.org/2000/svg">
<path d="M26.25 6C25.6533 6 25.081 6.23705 24.659 6.65901C24.2371 7.08097 24 7.65326 24 8.25V15H17.25C16.6533 15 16.081 15.2371 15.659 15.659C15.2371 16.081 15 16.6533 15 17.25V31.545L10.62 33.147C10.3275 33.2539 10.0604 33.4203 9.8356 33.6357C9.61076 33.8511 9.43308 34.1108 9.3138 34.3984C9.19452 34.6861 9.13624 34.9953 9.14264 35.3066C9.14905 35.6179 9.21999 35.9245 9.351 36.207L16.356 51.264C17.3806 50.9258 18.4845 50.9117 19.5174 51.2236C20.5502 51.5355 21.4618 52.1583 22.128 53.007L14.466 36.531L34.227 29.295C35.3787 28.8731 36.6418 28.8678 37.797 29.28L58.122 36.534L50.256 52.569C50.9713 51.8413 51.8832 51.338 52.8801 51.1206C53.877 50.9032 54.9157 50.9812 55.869 51.345L63.273 36.252C63.4128 35.9675 63.4908 35.6566 63.5021 35.3398C63.5133 35.023 63.4575 34.7074 63.3382 34.4136C63.219 34.1199 63.039 33.8547 62.8101 33.6354C62.5812 33.4161 62.3086 33.2476 62.01 33.141L57 31.353V17.25C57 16.6533 56.7629 16.081 56.341 15.659C55.919 15.2371 55.3467 15 54.75 15H48V8.25C48 7.65326 47.7629 7.08097 47.341 6.65901C46.919 6.23705 46.3467 6 45.75 6H26.25ZM43.5 15H28.5V10.5H43.5V15ZM52.5 19.5V29.748L39.309 25.041C37.1633 24.2762 34.8176 24.2868 32.679 25.071L19.5 29.892V19.5H52.5ZM56.181 55.692L56.172 55.662C56.0442 55.1911 55.7668 54.7745 55.3816 54.475C54.9964 54.1755 54.5243 54.0094 54.0364 54.0016C53.5486 53.9938 53.0714 54.1448 52.6769 54.4319C52.2823 54.7189 51.9918 55.1264 51.849 55.593V55.599L51.837 55.626L51.777 55.8C51.3965 56.8182 50.8744 57.7776 50.226 58.65C49.065 60.195 47.409 61.5 45 61.5C42.591 61.5 40.932 60.195 39.771 58.65C39.0854 57.7269 38.5414 56.7067 38.157 55.623L38.148 55.596C38.0072 55.1347 37.7219 54.7308 37.3342 54.4439C36.9464 54.157 36.4767 54.0023 35.9944 54.0027C35.512 54.003 35.0426 54.1583 34.6552 54.4458C34.2679 54.7332 33.9831 55.1375 33.843 55.599L33.831 55.632C33.7295 55.9272 33.6144 56.2175 33.486 56.502C33.219 57.096 32.805 57.882 32.226 58.65C31.071 60.195 29.418 61.5 27 61.5C24.582 61.5 22.926 60.195 21.768 58.65C21.0854 57.7286 20.5444 56.7104 20.163 55.629L20.154 55.596C20.0122 55.1292 19.7225 54.7211 19.3285 54.4333C18.9346 54.1455 18.4578 53.9935 17.9699 54.0003C17.4821 54.007 17.0097 54.1722 16.6239 54.4708C16.2381 54.7695 15.9598 55.1854 15.831 55.656L15.822 55.683L15.768 55.845C15.4149 56.8418 14.9045 57.7756 14.256 58.611C13.104 60.081 11.268 61.5 8.25 61.5C7.65326 61.5 7.08097 61.7371 6.65901 62.159C6.23705 62.581 6 63.1533 6 63.75C6 64.3467 6.23705 64.919 6.65901 65.341C7.08097 65.7629 7.65326 66 8.25 66C12.972 66 16.011 63.669 17.799 61.389L18 61.122L18.168 61.35C19.824 63.555 22.668 66 27 66C31.332 66 34.176 63.555 35.829 61.35L36 61.116L36.174 61.353C37.83 63.555 40.674 66 45 66C49.326 66 52.17 63.555 53.826 61.35L53.991 61.125C54.054 61.215 54.12 61.299 54.189 61.386C55.974 63.669 59.019 66 63.75 66C64.3467 66 64.919 65.7629 65.341 65.341C65.7629 64.919 66 64.3467 66 63.75C66 63.1533 65.7629 62.581 65.341 62.159C64.919 61.7371 64.3467 61.5 63.75 61.5C60.714 61.5 58.881 60.081 57.735 58.614C57.0551 57.7351 56.5296 56.747 56.181 55.692Z" fill="#0FA1AC"/>
</svg>
