<svg width="89" height="89" viewBox="0 0 89 89" fill="none" xmlns="http://www.w3.org/2000/svg">
<path d="M44.5 19.0979L16.261 30.3935C15.8333 30.5839 15.4872 30.8682 15.2227 31.2464C14.9631 31.6321 14.8333 32.0623 14.8333 32.5369V68.1814C14.8333 68.7031 15.083 69.2136 15.5824 69.713C16.0818 70.2124 16.5923 70.4621 17.114 70.4621H25.9583V46.7843C25.9583 45.128 26.5418 43.7151 27.7087 42.5457C28.8756 41.3764 30.2884 40.7917 31.9473 40.7917H57.0527C58.7091 40.7917 60.122 41.3751 61.2913 42.542C62.4582 43.7089 63.0417 45.1218 63.0417 46.7806V70.4584H71.886C72.4077 70.4584 72.9182 70.2087 73.4176 69.7093C73.917 69.2099 74.1667 68.6994 74.1667 68.1777V32.5332C74.1667 32.0586 74.0356 31.6309 73.7736 31.2501C73.5115 30.8694 73.1666 30.5851 72.739 30.3972L44.5 19.0979ZM11.125 68.1777V32.5332C11.125 31.2724 11.4711 30.1438 12.1633 29.1475C12.8556 28.1487 13.7703 27.4194 14.9075 26.9596L42.2898 16.02C43.0117 15.6937 43.7484 15.5305 44.5 15.5305C45.2516 15.5305 45.9883 15.6924 46.7102 16.0163L74.0962 26.9559C75.2334 27.4182 76.1482 28.1475 76.8404 29.1438C77.5301 30.1426 77.875 31.2724 77.875 32.5332V68.1777C77.875 69.8341 77.2916 71.247 76.1247 72.4164C74.9578 73.5832 73.5449 74.1667 71.886 74.1667H59.3333V46.7806C59.3333 46.1156 59.1195 45.5693 58.6918 45.1416C58.2641 44.7139 57.7177 44.5 57.0527 44.5H31.9473C31.2823 44.5 30.7359 44.7139 30.3082 45.1416C29.8805 45.5693 29.6667 46.1156 29.6667 46.7806V74.1667H17.114C15.4576 74.1667 14.0447 73.5832 12.8753 72.4164C11.7084 71.2495 11.125 69.8366 11.125 68.1777ZM35.4442 74.1667V68.4633H41.1477V74.1667H35.4442ZM41.6483 63.0417V57.3383H47.3517V63.0417H41.6483ZM47.8523 74.1667V68.4633H53.5558V74.1667H47.8523Z" fill="#0FA1AC"/>
</svg>
