<?xml version="1.0" standalone="no"?>
<!DOCTYPE svg PUBLIC "-//W3C//DTD SVG 20010904//EN"
 "http://www.w3.org/TR/2001/REC-SVG-20010904/DTD/svg10.dtd">
<svg version="1.0" xmlns="http://www.w3.org/2000/svg"
 width="626.000000pt" height="417.000000pt" viewBox="0 0 626.000000 417.000000"
 preserveAspectRatio="xMidYMid meet">

<g transform="translate(0.000000,417.000000) scale(0.100000,-0.100000)"
fill="#000000" stroke="none">
<path d="M0 2790 l0 -1381 47 6 c124 13 191 18 226 18 20 -1 37 2 37 6 0 4 12
8 26 9 14 1 52 9 83 18 31 9 72 19 91 21 29 5 32 7 15 14 -17 6 -16 8 10 10
30 2 30 2 -5 8 l-35 7 50 16 c51 15 133 17 170 4 16 -6 17 -6 5 3 -11 8 -1 11
45 12 33 0 71 2 85 4 30 4 102 -13 96 -23 -2 -4 20 -7 50 -7 30 0 54 4 54 8 0
5 7 1 16 -7 14 -14 87 -23 147 -17 29 3 19 -19 -12 -25 -27 -6 -53 -34 -31
-34 6 0 10 5 10 10 0 6 11 10 24 10 35 0 61 11 46 20 -17 11 21 19 45 9 19 -7
19 -8 -2 -8 -12 -1 -25 -6 -28 -11 -4 -6 -22 -17 -41 -25 -19 -8 -34 -21 -34
-29 0 -17 -8 -19 -52 -16 -16 1 -28 -4 -28 -10 0 -8 10 -10 25 -8 14 3 25 2
25 -2 0 -8 82 -4 107 5 7 2 15 0 18 -5 3 -6 16 -5 32 1 19 7 28 6 33 -2 5 -7
14 -8 26 -2 11 5 37 6 59 2 23 -3 30 -7 16 -8 -19 -1 -21 -4 -12 -15 10 -12 8
-14 -13 -12 -27 3 -36 -11 -13 -19 6 -3 32 -7 57 -9 25 -2 49 -4 53 -5 5 -1 5
-7 1 -13 -6 -9 -3 -9 9 0 11 10 21 11 34 3 19 -10 14 -14 -32 -24 -11 -3 2 -5
28 -6 37 -1 54 -7 73 -26 14 -14 31 -25 38 -25 8 0 16 -6 19 -14 3 -8 16 -16
29 -18 13 -3 -2 -5 -32 -5 -38 -1 -49 2 -35 7 18 8 18 9 -5 9 -18 1 -21 4 -12
10 32 20 -52 32 -117 17 -22 -5 -31 -5 -27 2 4 6 -2 8 -14 5 -11 -3 -20 -9
-20 -14 0 -5 8 -6 18 -3 9 3 1 -4 -18 -15 -46 -26 -21 -27 30 -1 22 11 40 16
40 11 0 -15 -62 -39 -113 -45 -33 -3 -55 -12 -68 -27 -15 -18 -30 -22 -79 -23
-33 -1 -60 -4 -60 -8 0 -5 -7 -8 -16 -8 -8 0 -12 5 -9 10 8 13 3 13 -32 0 -27
-10 -27 -9 -8 6 19 16 19 16 -7 10 -14 -3 -28 -3 -31 2 -2 4 -2 1 -1 -5 2 -7
-3 -13 -10 -13 -8 0 -17 -6 -19 -12 -3 -8 -6 -5 -6 5 -1 17 -2 17 -17 3 -8 -9
-23 -16 -32 -16 -15 -1 -15 -2 1 -15 17 -12 13 -15 -49 -35 -38 -11 -79 -27
-91 -35 -16 -11 -23 -11 -25 -3 -5 13 -103 -6 -148 -29 -14 -7 -27 -8 -30 -3
-3 5 -21 9 -40 9 -54 -1 -101 12 -93 25 3 6 -3 2 -15 -8 -14 -12 -22 -14 -22
-7 0 9 -13 10 -47 5 -27 -4 -56 -8 -66 -8 -17 0 -17 -1 -2 -12 10 -8 12 -14 6
-19 -6 -3 -11 -2 -11 3 0 14 -35 21 -53 11 -20 -12 -32 6 -15 20 7 6 24 20 38
31 l25 20 -40 -6 c-22 -4 -42 -10 -45 -14 -6 -9 -33 -17 -79 -25 -19 -3 -38
-8 -43 -11 -4 -3 -8 -3 -8 1 0 5 47 27 62 29 4 1 15 8 25 16 10 9 34 15 53 15
32 -1 35 1 36 25 1 26 1 26 -55 22 -53 -4 -55 -3 -36 12 19 15 19 16 -8 6 -16
-6 -33 -7 -39 -4 -6 4 -8 3 -5 -3 4 -6 -9 -10 -31 -11 -36 -1 -37 -1 -12 12
14 8 49 17 77 21 45 6 53 10 53 27 0 20 -1 20 -19 4 -16 -14 -23 -15 -38 -6
-15 9 -15 10 7 4 22 -6 23 -5 11 9 -11 15 -8 17 28 23 51 8 54 20 3 19 -42 -1
-65 -12 -57 -26 4 -5 0 -9 -8 -9 -7 0 -14 7 -14 15 0 8 4 12 8 9 4 -2 10 0 14
6 10 16 -73 12 -99 -6 -18 -11 -26 -12 -32 -3 -4 8 -3 9 4 5 6 -4 20 2 32 14
11 11 23 19 28 19 28 -5 35 2 16 17 -18 15 -18 15 3 5 28 -14 86 -14 78 -1 -3
6 -1 10 6 10 7 0 9 3 6 6 -4 4 -14 1 -22 -6 -12 -10 -18 -11 -28 -1 -9 10 -8
11 7 5 14 -5 17 -4 12 5 -5 8 -24 11 -52 8 -23 -2 -41 0 -39 4 3 4 -9 6 -27 5
-17 0 -33 5 -35 12 -3 6 2 12 11 12 8 0 18 4 21 10 4 6 -3 6 -21 0 -15 -6 -34
-8 -44 -5 -21 7 -50 -3 -50 -17 0 -6 7 -5 16 3 13 10 17 10 24 0 4 -8 12 -11
18 -7 16 10 25 -13 12 -29 -8 -10 -7 -14 6 -17 11 -2 6 -7 -15 -15 -25 -9 -31
-9 -31 3 0 8 6 11 15 8 11 -5 13 -2 9 10 -3 9 -17 16 -29 16 l-24 0 -1 -645
-1 -645 1452 0 c1123 1 1454 3 1465 13 32 28 44 37 51 37 4 -1 -5 -12 -22 -25
l-30 -25 398 1 c264 0 395 4 391 10 -3 6 -13 8 -22 4 -9 -3 -13 -3 -10 1 4 4
-4 15 -17 26 -26 20 -33 38 -15 38 6 0 10 -6 10 -13 0 -7 9 -18 20 -25 11 -7
20 -8 20 -3 0 6 -5 13 -11 16 -6 5 -4 12 8 21 10 8 14 14 8 13 -21 -4 -95 14
-95 23 0 5 24 6 53 4 28 -3 44 -3 35 0 -10 3 -18 12 -18 19 0 7 -16 30 -35 51
-19 20 -32 40 -29 45 3 5 -9 9 -25 9 -35 0 -43 20 -8 20 19 1 17 4 -13 19 -19
11 -35 23 -35 28 0 4 -4 7 -9 5 -5 -2 -4 3 3 12 10 12 8 16 -8 21 -12 3 -21
13 -21 21 0 8 -10 18 -22 23 -13 5 -30 17 -39 28 -9 10 -37 34 -62 53 -26 19
-46 39 -47 44 0 5 15 -3 33 -18 42 -34 97 -58 116 -51 12 5 10 10 -10 23 -14
9 -25 22 -23 27 2 6 -17 22 -41 37 -25 15 -45 32 -45 37 0 5 26 -6 57 -25 79
-47 92 -42 15 7 -47 30 -66 37 -80 30 -12 -6 -25 -5 -42 5 -14 7 -34 13 -45
14 -16 0 -12 -7 20 -40 21 -22 36 -40 31 -40 -4 0 -22 16 -39 35 -17 19 -37
35 -44 35 -7 0 -13 4 -13 10 0 5 3 9 8 8 4 0 14 2 23 6 8 4 28 0 44 -8 33 -17
51 -10 20 8 -31 18 -113 99 -87 86 13 -6 26 -9 29 -7 8 8 -32 26 -64 29 -20 1
-29 8 -30 20 -2 16 1 16 20 6 12 -6 33 -13 47 -14 23 -2 23 -1 -5 11 -16 7
-38 16 -48 19 -17 6 -18 18 -12 198 3 106 10 216 15 243 53 284 119 413 230
442 42 11 73 6 63 -10 -4 -7 -9 -20 -10 -29 -2 -10 -3 -21 -4 -25 -1 -4 -1
-17 0 -28 1 -18 2 -19 12 -2 16 28 28 20 22 -17 -4 -28 -2 -34 16 -39 15 -4
25 1 32 16 12 21 12 21 28 1 9 -10 23 -19 31 -19 16 0 45 33 45 50 0 6 24 11
53 13 28 2 52 7 52 13 0 5 -6 9 -14 9 -8 0 -17 4 -21 9 -3 6 7 6 26 1 36 -11
53 -5 45 16 -4 9 2 14 17 14 32 1 66 22 81 51 11 21 11 26 0 26 -14 0 -15 -3
-18 -29 0 -7 -16 -14 -33 -16 -26 -3 -32 0 -27 12 3 8 -3 23 -14 34 -33 33 -5
81 61 105 10 4 26 26 37 49 10 24 19 36 19 28 1 -8 -8 -32 -19 -52 -19 -37
-19 -38 -1 -48 28 -15 33 -13 26 11 -6 18 -4 20 11 11 15 -8 27 -2 64 30 25
22 44 44 43 49 -2 5 22 9 52 9 40 0 57 4 61 15 7 17 143 129 150 123 2 -3 -7
-15 -21 -28 -14 -13 -25 -28 -25 -33 0 -4 11 5 25 21 13 16 54 48 89 72 36 23
65 45 64 48 -1 4 5 19 12 34 10 21 16 25 26 17 16 -13 26 3 18 26 -6 14 -3 16
14 10 13 -4 22 -2 22 4 0 6 -7 11 -15 11 -8 0 -15 4 -15 10 0 5 3 9 8 9 4 -1
15 -1 26 0 18 1 18 9 12 149 -3 81 -9 254 -12 385 l-7 237 -63 0 c-38 0 -64
-4 -64 -11 0 -5 -4 -7 -10 -4 -5 3 -10 48 -10 98 0 146 11 136 -146 136 -74 0
-140 4 -147 8 -19 12 -131 3 -139 -12 -5 -9 -50 -15 -143 -20 -123 -6 -135 -9
-135 -26 0 -10 -4 -19 -10 -19 -5 0 -10 9 -10 20 0 19 -6 20 -150 19 -95 0
-150 -4 -150 -11 0 -6 -26 -9 -67 -6 l-66 3 2 -419 c2 -415 4 -445 36 -468 6
-4 -2 -8 -17 -8 -21 0 -26 4 -21 15 3 10 0 15 -8 13 -16 -3 -16 8 -19 422 -1
140 -5 234 -10 220 l-8 -25 -1 28 c-1 38 -21 24 -21 -14 0 -17 4 -28 9 -24 5
3 12 1 15 -4 3 -5 0 -11 -7 -14 -16 -6 -21 -65 -6 -83 8 -10 8 -14 0 -14 -6 0
-11 -16 -11 -35 0 -19 5 -35 11 -35 6 0 8 8 4 19 -3 11 -2 22 3 25 4 2 9 -13
10 -34 2 -32 0 -39 -13 -34 -13 5 -15 -13 -17 -142 -1 -82 -2 -161 -2 -176 -1
-29 -16 -52 -16 -25 0 22 -9 22 -26 0 -8 -11 -13 -13 -14 -6 0 7 9 18 20 25
33 21 25 40 -12 34 l-33 -5 32 11 32 11 1 323 c0 178 1 329 2 336 2 10 -16 12
-76 9 l-79 -3 6 62 7 62 -73 -4 c-39 -3 -80 -8 -89 -12 -13 -6 -18 -1 -24 29
-3 20 -4 56 -2 80 6 52 10 50 -142 53 -58 2 -129 5 -157 8 -55 6 -75 -8 -30
-22 20 -6 50 -19 177 -77 25 -11 58 -29 73 -40 15 -10 40 -23 55 -27 33 -10
17 -11 -465 -10 -200 0 -369 -3 -378 -6 -12 -5 -15 -25 -15 -103 l0 -96 -80 3
-80 4 -1 -118 c-2 -371 -16 -674 -30 -674 -5 0 -9 20 -9 44 l0 45 -52 -18
c-38 -13 -52 -23 -50 -35 2 -9 -4 -16 -13 -16 -16 0 -19 9 -15 48 2 22 -29 62
-47 62 -4 0 -20 6 -35 14 -25 13 -27 13 -32 -10 -4 -14 -2 -33 4 -44 5 -10 10
-30 10 -43 0 -23 -2 -24 -25 -14 -14 7 -25 15 -25 20 0 4 -7 7 -16 7 -10 0
-36 16 -59 35 -38 31 -44 33 -56 19 -23 -28 -96 -13 -165 34 -56 38 -62 46
-67 84 -3 23 -1 48 4 55 13 15 -17 70 -43 79 -10 3 -25 18 -35 35 -10 17 -32
33 -53 40 -19 6 -40 16 -46 21 -11 8 -86 -25 -118 -51 -8 -7 -10 3 -8 32 3 38
0 46 -32 75 -19 17 -45 32 -56 32 -11 0 -20 4 -20 10 0 5 -7 7 -15 4 -9 -4
-15 0 -15 10 0 9 -4 16 -8 16 -12 0 -52 -39 -52 -50 0 -6 -10 -10 -22 -10 -26
-1 -61 -27 -71 -53 -8 -22 -26 -14 -25 11 0 9 -3 25 -7 35 -4 10 -3 17 4 17 6
0 11 5 11 11 0 17 -52 5 -64 -15 -8 -14 -8 -20 2 -23 6 -3 12 -13 12 -24 0
-10 5 -19 10 -19 22 0 8 -28 -15 -32 -21 -4 -24 -2 -20 13 4 12 -1 19 -15 24
-11 3 -20 15 -20 26 0 16 -7 19 -45 19 -32 0 -45 4 -45 14 0 23 -43 84 -62 89
-21 6 -26 53 -16 135 1 6 5 12 9 12 4 0 10 9 14 19 3 11 15 23 26 26 11 4 31
17 44 31 13 13 30 24 38 24 8 0 20 7 27 15 7 8 25 15 41 15 25 0 29 4 29 26 0
20 4 25 16 20 11 -4 22 1 31 14 8 11 20 20 27 20 22 0 102 -39 116 -56 8 -9
22 -13 33 -10 27 7 97 -69 97 -105 0 -15 9 -38 20 -52 21 -27 27 -57 10 -57
-5 0 -10 -7 -10 -16 0 -8 5 -12 10 -9 6 4 18 1 26 -6 8 -6 17 -9 21 -5 3 3 1
6 -5 6 -7 0 -12 5 -12 10 0 6 15 10 33 9 17 0 50 6 72 15 22 8 47 15 55 16 8
0 27 11 42 25 15 14 31 25 36 25 11 0 99 41 160 75 23 13 56 26 72 30 17 4 51
18 75 32 25 13 45 21 45 17 0 -4 9 1 19 10 11 10 28 16 38 14 10 -1 28 7 41
20 13 13 34 22 52 22 16 0 35 6 42 13 7 8 20 12 29 10 9 -3 23 2 31 11 9 8 29
18 44 22 16 4 53 17 82 30 29 13 57 24 62 24 6 0 10 4 10 8 0 11 87 35 105 28
9 -3 18 1 21 9 4 8 10 15 16 15 5 0 15 6 23 13 7 8 52 21 100 31 48 9 125 28
172 41 47 14 97 25 112 25 29 0 104 24 97 31 -3 3 14 4 37 3 23 -1 51 2 62 6
11 5 47 14 80 21 33 7 68 18 79 25 11 7 33 10 54 7 25 -4 33 -3 28 5 -4 7 -1
13 6 13 7 1 23 3 36 4 25 3 30 -10 6 -19 -16 -6 -11 -26 7 -26 6 0 7 5 4 10
-3 6 -4 10 0 10 3 0 10 -10 15 -22 8 -19 10 -14 7 24 -2 45 -1 47 34 58 20 7
59 11 87 9 39 -3 48 -1 40 9 -8 9 -2 12 25 12 35 0 56 -13 38 -24 -4 -3 -5
-24 -1 -46 6 -33 5 -40 -9 -40 -14 0 -14 -2 -1 -10 11 -7 2 -10 -32 -10 -27 0
-49 5 -49 10 -1 6 -2 14 -3 19 0 5 -5 13 -10 18 -5 4 -7 -4 -4 -19 4 -23 2
-28 -16 -28 -17 0 -18 2 -6 10 13 8 12 10 -2 10 -10 0 -18 -4 -18 -10 0 -5
-11 -10 -25 -10 -14 0 -25 -4 -25 -8 0 -10 -73 -7 -90 3 -5 3 -10 2 -10 -3 0
-18 62 -22 306 -22 151 0 245 4 249 10 4 6 -21 11 -67 12 -126 2 -131 3 -136
18 -3 13 -2 13 7 0 9 -12 11 -11 11 8 0 27 8 28 27 5 13 -16 13 -16 3 5 -7 14
-17 21 -26 18 -11 -4 -14 4 -14 34 0 22 5 40 10 40 19 0 10 28 -10 33 -13 3
-18 10 -14 21 7 19 24 21 25 4 1 -7 5 1 9 17 l8 30 1 -31 1 -32 65 -1 c35 0
70 -2 77 -3 7 -2 12 2 11 8 -1 7 19 14 48 16 39 4 56 11 74 32 12 14 27 26 34
26 19 0 12 30 -14 55 -13 14 -28 25 -33 25 -5 0 -12 8 -15 19 -3 15 4 21 34
31 69 23 76 55 14 62 l-29 3 26 17 c34 22 84 35 74 19 -7 -11 17 -16 59 -11
16 2 17 -1 7 -13 -11 -13 -5 -16 45 -21 58 -6 70 -5 198 14 93 14 295 20 295
9 0 -12 44 -11 56 1 7 7 18 2 34 -15 13 -14 30 -25 37 -25 8 0 12 -3 9 -8 -8
-13 23 -45 46 -46 13 -1 34 4 47 11 14 6 28 10 33 7 4 -3 8 6 8 20 0 23 33 66
51 66 4 0 11 9 14 20 3 11 12 20 19 20 8 0 20 7 27 16 23 28 59 36 84 20 18
-12 29 -13 53 -4 25 10 33 9 47 -5 9 -9 23 -17 31 -17 8 0 17 -13 21 -30 3
-16 11 -30 18 -30 21 0 66 27 81 49 9 12 24 21 34 21 10 0 22 5 25 10 7 12 57
9 66 -3 10 -13 69 55 69 79 0 12 6 25 12 27 7 3 -1136 6 -2539 6 l-2553 1 0
-1380z m3439 1116 c-2 -2 -16 -2 -32 1 -25 5 -26 6 -10 19 15 11 20 10 32 -1
8 -8 13 -16 10 -19z m22 -116 c36 0 29 -27 -10 -37 -14 -3 -29 -11 -33 -17 -6
-8 -11 -7 -17 3 -6 9 -18 11 -41 6 -27 -6 -31 -4 -28 11 3 18 64 45 86 38 8
-2 27 -4 43 -4z m-284 -26 c-9 -9 -67 -11 -67 -2 0 4 17 8 37 8 20 0 34 -3 30
-6z m-69 -67 c28 -2 17 -17 -13 -17 -26 0 -40 14 -29 31 5 8 8 8 14 0 4 -7 16
-13 28 -14z m9 17 c-3 -3 -12 -4 -19 -1 -8 3 -5 6 6 6 11 1 17 -2 13 -5z
m-384 -383 c17 -13 28 -79 15 -87 -13 -8 -49 6 -43 17 3 5 -1 6 -9 3 -9 -3
-16 -1 -16 5 0 6 -7 8 -15 5 -9 -4 -15 0 -15 9 0 8 -15 20 -32 28 -18 7 -42
19 -53 27 -18 12 -10 13 67 10 47 -3 93 -10 101 -17z m67 -206 c0 -30 -3 -55
-7 -55 -5 0 -6 25 -5 55 5 71 12 71 12 0z m1117 -97 c-2 -13 -4 -3 -4 22 0 25
2 35 4 23 2 -13 2 -33 0 -45z m-1877 -30 c0 -29 -4 -48 -8 -41 -7 12 -4 93 4
93 2 0 4 -24 4 -52z m1880 -108 l0 -70 -51 0 -52 0 7 46 c4 32 3 43 -6 38 -7
-5 -9 0 -6 14 4 15 2 22 -8 22 -8 0 -14 5 -14 10 0 6 28 10 65 10 l65 0 0 -70z
m-1453 25 c28 -5 31 -9 31 -42 0 -22 -7 -43 -16 -51 -10 -7 -11 -10 -3 -6 9 5
12 3 7 -4 -4 -7 -32 -12 -65 -12 l-59 0 0 40 c-1 34 2 40 21 41 22 2 22 2 0 6
-13 2 -23 8 -23 13 0 15 59 23 107 15z m440 -1 c-3 -3 -12 -4 -19 -1 -8 3 -5
6 6 6 11 1 17 -2 13 -5z m-982 -14 c3 -5 1 -10 -4 -10 -6 0 -11 5 -11 10 0 6
2 10 4 10 3 0 8 -4 11 -10z m35 0 c0 -5 -4 -10 -10 -10 -5 0 -10 5 -10 10 0 6
5 10 10 10 6 0 10 -4 10 -10z m60 0 c0 -5 -4 -10 -10 -10 -5 0 -10 5 -10 10 0
6 5 10 10 10 6 0 10 -4 10 -10z m1580 -5 c0 -17 -4 -18 -49 -9 -44 9 -39 24 9
24 29 0 40 -4 40 -15z m-331 -27 c0 -16 -2 -18 -6 -8 -3 8 -11 18 -17 22 -7 5
-4 8 7 8 11 0 17 -7 16 -22z m-17 -34 c3 -27 2 -33 -7 -23 -6 8 -17 20 -25 28
-8 8 -9 11 -2 7 7 -4 12 -1 12 8 0 32 18 15 22 -20z m-152 -4 c0 -5 -4 -10
-10 -10 -5 0 -10 5 -10 10 0 6 5 10 10 10 6 0 10 -4 10 -10z m387 -102 c-2
-18 -4 -6 -4 27 0 33 2 48 4 33 2 -15 2 -42 0 -60z m862 30 c-1 -18 -5 -44 -9
-58 -8 -25 -8 -25 -10 5 -1 17 -1 38 0 49 1 10 -4 23 -12 27 -9 6 -7 9 10 9
18 0 22 -5 21 -32z m-3697 -25 c2 -10 -3 -23 -12 -30 -13 -11 -13 -12 3 -13
17 0 17 -1 3 -16 -15 -14 -69 -15 -83 0 -7 7 60 76 74 76 6 0 13 -8 15 -17z
m2888 -9 c0 -2 -7 -4 -15 -4 -8 0 -15 4 -15 10 0 5 7 7 15 4 8 -4 15 -8 15
-10z m38 -2 c2 -7 -2 -10 -12 -6 -9 3 -16 11 -16 16 0 13 23 5 28 -10z m-655
-79 c-18 -2 -48 -2 -65 0 -18 2 -4 4 32 4 36 0 50 -2 33 -4z m1264 -55 c-3 -8
-6 -5 -6 6 -1 11 2 17 5 13 3 -3 4 -12 1 -19z m-1087 -14 c0 -8 -5 -12 -10 -9
-6 4 -8 11 -5 16 9 14 15 11 15 -7z m-35 -25 c-4 -5 1 -19 11 -30 9 -10 12
-19 6 -19 -15 0 -35 38 -27 50 3 6 8 10 11 10 3 0 2 -5 -1 -11z m307 -214 c29
-42 33 -55 20 -55 -5 0 -18 17 -30 38 -25 45 -57 76 -70 68 -5 -3 -9 1 -9 9 0
24 57 -15 89 -60z m-369 43 c-4 -7 -10 -33 -14 -58 l-6 -45 -2 38 c-1 35 12
77 25 77 3 0 2 -6 -3 -12z m1244 -44 c-3 -3 -12 -4 -19 -1 -8 3 -5 6 6 6 11 1
17 -2 13 -5z m91 -1 c-10 -2 -26 -2 -35 0 -10 3 -2 5 17 5 19 0 27 -2 18 -5z
m72 -3 c12 -8 11 -10 -7 -10 -12 0 -25 5 -28 10 -8 13 15 13 35 0z m-1278 -17
c-6 -2 -10 -9 -6 -14 3 -5 0 -9 -5 -9 -6 0 -11 7 -11 15 0 8 8 15 18 14 10 0
12 -3 4 -6z m-1415 -163 c18 -50 39 -83 94 -150 48 -59 176 -302 155 -294 -9
3 -16 14 -16 23 0 15 -6 16 -60 7 -46 -8 -63 -7 -73 3 -6 7 -7 12 -2 11 24 -5
56 1 51 9 -3 4 -31 9 -61 10 -40 1 -54 -2 -49 -11 4 -7 3 -8 -5 -4 -6 4 -18 2
-26 -4 -8 -6 -22 -10 -32 -7 -15 3 -14 6 7 15 31 13 7 15 -40 3 -19 -5 -64
-12 -100 -15 -62 -5 -63 -5 -20 5 25 6 49 15 54 20 5 5 -6 4 -25 -1 -48 -14
-83 -11 -37 4 20 6 40 14 44 19 14 14 46 8 40 -8 -4 -11 1 -15 17 -15 17 0 19
2 7 10 -23 14 -9 19 71 25 122 9 182 19 186 31 6 17 -23 21 -138 23 -122 2
-189 9 -207 24 -11 9 -11 12 5 18 17 7 17 8 -1 8 -15 1 -16 4 -6 16 11 13 6
15 -34 16 -66 2 -71 3 -68 18 2 9 -4 12 -18 8 -11 -3 -18 -1 -14 4 3 5 26 9
52 10 26 1 58 5 72 9 22 7 20 8 -15 9 -48 2 -87 21 -42 21 15 0 27 4 27 10 0
5 45 11 102 12 70 2 103 7 106 16 2 8 -11 12 -45 12 -28 0 -43 4 -35 8 22 15
2 41 -36 48 -21 3 -55 10 -77 15 -22 6 -45 11 -50 12 -6 1 -21 10 -34 19 l-23
16 23 4 c13 2 77 3 142 3 l117 0 17 -45z m2633 30 c13 -8 13 -13 2 -31 -9 -15
-10 -19 -1 -14 7 5 10 3 7 -6 -3 -9 -22 -15 -49 -17 -41 -2 -43 -1 -25 13 11
8 17 17 14 20 -2 3 -13 -4 -23 -15 -10 -11 -30 -20 -44 -20 -25 1 -25 1 -6 15
11 8 32 26 48 40 29 26 52 31 77 15z m-2335 -16 c31 -20 34 -55 5 -47 -21 6
-28 23 -9 23 5 0 7 5 3 11 -4 8 -9 7 -15 -2 -5 -8 -9 -9 -10 -4 0 6 -4 1 -9
-10 -8 -18 -9 -18 -9 6 -1 23 6 39 16 39 2 0 15 -7 28 -16z m-99 -11 c-1 -10
4 -19 9 -20 6 -1 10 6 9 17 0 10 3 17 8 14 12 -7 10 -42 -3 -50 -16 -9 -43 21
-36 40 8 21 14 20 13 -1z m2204 -117 c0 -2 -8 -10 -17 -17 -16 -13 -17 -12 -4
4 13 16 21 21 21 13z m-103 -43 c-3 -10 -5 -4 -5 12 0 17 2 24 5 18 2 -7 2
-21 0 -30z m58 -22 c-17 -34 -18 -33 62 -12 33 9 41 15 37 29 -5 14 -4 15 5 2
8 -12 4 -21 -17 -41 -21 -21 -39 -28 -84 -31 -32 -3 -58 -2 -58 1 0 8 60 81
66 81 2 0 -2 -13 -11 -29z m-2558 -57 c-3 -3 -12 -4 -19 -1 -8 3 -5 6 6 6 11
1 17 -2 13 -5z m2488 -34 c-3 -5 -13 -10 -21 -10 -8 0 -14 -5 -14 -12 0 -6 -2
-9 -5 -6 -11 11 8 38 27 38 10 0 16 -4 13 -10z m-1719 -125 c9 -8 11 -15 6
-15 -5 0 -15 7 -22 15 -7 8 -9 15 -6 15 4 0 14 -7 22 -15z m174 -32 c9 9 11 9
6 0 -3 -6 -2 -14 4 -18 5 -3 10 -12 10 -18 0 -7 -7 -3 -15 7 -10 13 -15 15
-15 6 0 -9 -5 -7 -15 6 -8 10 -14 24 -14 29 0 6 5 2 13 -7 10 -14 15 -15 26
-5z m65 3 c8 3 24 -4 36 -15 13 -12 25 -17 28 -12 3 5 15 -3 25 -18 l20 -26
-21 18 c-14 12 -22 14 -25 6 -2 -7 -17 0 -38 17 -19 16 -36 28 -39 26 -3 -2
-6 1 -7 8 -2 6 0 6 2 1 3 -6 12 -7 19 -5z m-808 -12 c-3 -3 -12 -4 -19 -1 -8
3 -5 6 6 6 11 1 17 -2 13 -5z m-372 -244 c-3 -5 -18 -9 -33 -9 l-27 1 30 8
c17 4 31 8 33 9 2 0 0 -3 -3 -9z m-68 -26 c-11 -12 -68 -14 -61 -3 3 6 12 8
18 6 7 -3 19 -1 27 3 14 9 27 4 16 -6z m58 -12 c-3 -3 -11 0 -18 7 -9 10 -8
11 6 5 10 -3 15 -9 12 -12z m-1210 -152 c-3 -5 -12 -7 -20 -3 -21 7 -19 13 6
13 11 0 18 -4 14 -10z m1 -29 c-8 -12 -46 -21 -46 -11 0 5 8 11 18 13 29 8 33
7 28 -2z m15 -75 c-18 -10 -20 -15 -10 -19 11 -4 10 -6 -2 -6 -27 -1 -31 27
-6 32 39 8 42 6 18 -7z m1626 8 c-3 -3 -12 -4 -19 -1 -8 3 -5 6 6 6 11 1 17
-2 13 -5z m-1592 -13 c-3 -5 5 -12 17 -14 20 -4 19 -4 -4 -6 -27 -1 -35 8 -21
22 9 10 15 8 8 -2z m-112 -8 c-7 -2 -21 -2 -30 0 -10 3 -5 5 12 5 17 0 24 -2
18 -5z m1760 -2 c14 -6 55 -12 90 -15 36 -4 76 -10 89 -15 22 -9 22 -10 -5
-10 -19 -1 -26 -5 -21 -13 5 -8 2 -9 -10 -5 -10 4 -27 7 -39 7 -20 0 -21 0 -1
16 19 15 19 16 -1 8 -11 -4 -38 -9 -60 -10 -36 -3 -37 -2 -10 5 25 7 20 8 -28
9 -32 0 -61 3 -64 6 -4 3 2 6 13 6 16 0 17 2 4 10 -13 8 -13 10 2 10 9 0 28
-4 41 -9z m-1746 -27 c-3 -3 -12 -4 -19 -1 -8 3 -5 6 6 6 11 1 17 -2 13 -5z
m2186 -34 c-18 -21 -28 -27 -18 -10 3 6 -2 10 -12 11 -16 0 -16 1 2 9 36 15
46 11 28 -10z m-2138 0 c-3 -5 -18 -10 -33 -9 -24 0 -25 1 -7 9 28 12 47 12
40 0z m1975 -6 c0 -2 -26 -3 -57 -3 -49 1 -53 3 -23 8 33 6 80 3 80 -5z
m-1770 2 c0 -3 -4 -8 -10 -11 -5 -3 -10 -1 -10 4 0 6 5 11 10 11 6 0 10 -2 10
-4z m2125 -16 c-3 -5 -12 -10 -18 -10 -7 0 -6 4 3 10 19 12 23 12 15 0z m-310
-10 c-3 -5 -30 -9 -58 -9 -49 2 -50 2 -17 9 53 11 82 11 75 0z m-1932 -26 c-3
-8 -12 -13 -19 -10 -8 3 -25 1 -39 -4 -15 -6 -26 -6 -30 0 -5 9 22 14 63 13 6
-1 12 3 12 8 0 5 4 9 10 9 5 0 7 -7 3 -16z m-110 -21 c-7 -2 -19 -2 -25 0 -7
3 -2 5 12 5 14 0 19 -2 13 -5z m2607 3 c0 -2 -7 -7 -16 -10 -8 -3 -12 -2 -9 4
6 10 25 14 25 6z m-2595 -25 c-27 -4 -56 -10 -62 -14 -7 -5 -13 -4 -13 2 0 13
25 19 80 18 l45 0 -50 -6z m180 -11 c3 -6 -1 -7 -9 -4 -18 7 -21 14 -7 14 6 0
13 -4 16 -10z m2425 -10 c0 -5 -5 -10 -11 -10 -5 0 -7 5 -4 10 3 6 8 10 11 10
2 0 4 -4 4 -10z m-37 -7 c-7 -2 -13 -9 -13 -14 0 -4 7 -6 15 -3 8 4 23 3 33
-1 14 -5 11 -9 -17 -21 -41 -17 -38 -18 -44 5 -5 20 10 42 28 40 5 0 4 -3 -2
-6z m60 -55 l32 5 -25 -22 c-22 -20 -22 -21 -3 -12 12 6 30 11 40 10 16 0 16
-1 -2 -9 -22 -9 -9 -14 31 -11 12 1 24 -5 27 -13 4 -9 1 -16 -6 -16 -9 0 -8
-3 1 -9 7 -4 31 -6 52 -4 31 3 39 1 34 -10 -4 -10 5 -17 30 -21 20 -4 36 -11
36 -16 0 -6 10 -11 23 -11 36 -2 -54 -18 -103 -18 -25 0 -54 6 -64 14 -11 8
-29 15 -40 15 -23 1 -56 22 -56 36 0 5 -12 10 -26 10 -14 1 -34 10 -44 19 -16
14 -17 21 -7 39 14 25 31 38 35 27 1 -4 17 -5 35 -3z m-2532 -7 c-8 -5 -20 -7
-28 -4 -21 8 -15 13 15 13 20 0 23 -3 13 -9z m44 -11 c3 -5 -1 -10 -10 -10 -9
0 -13 5 -10 10 3 6 8 10 10 10 2 0 7 -4 10 -10z m70 0 c-3 -5 -16 -10 -28 -9
-21 0 -21 1 -2 9 28 12 37 12 30 0z m2482 -264 c0 -8 -3 -14 -6 -14 -11 2 -64
-15 -90 -28 -26 -14 -26 -14 12 -14 21 0 47 -5 58 -10 10 -6 19 -7 19 -3 0 4
17 9 38 10 34 1 35 0 12 -9 -14 -6 -33 -14 -43 -19 -10 -5 -23 -7 -29 -3 -7 5
-8 3 -4 -5 5 -7 14 -10 22 -7 20 8 17 -11 -3 -23 -16 -9 -15 -11 7 -12 23 -1
23 -2 -5 -8 l-30 -7 33 -8 c17 -4 32 -11 32 -16 0 -5 14 -5 30 0 37 11 40 3 4
-10 -19 -7 -31 -7 -40 1 -11 9 -14 8 -14 -5 0 -9 5 -16 11 -16 5 0 7 -5 3 -12
-5 -8 0 -9 14 -6 12 4 22 2 22 -3 0 -5 -5 -9 -12 -9 -6 0 -9 -3 -5 -6 9 -9 48
6 42 17 -3 5 2 6 11 2 13 -5 15 -3 9 7 -5 9 -4 11 3 6 6 -4 25 0 43 9 17 9 34
14 37 10 9 -9 -26 -34 -58 -42 -24 -6 -50 -25 -50 -37 0 -3 12 -1 26 4 37 14
51 12 28 -5 -10 -8 -28 -15 -39 -15 -17 0 -17 -2 -5 -10 12 -8 11 -10 -7 -10
-13 0 -23 -5 -23 -12 0 -9 -3 -9 -12 0 -15 15 -31 16 -22 0 5 -8 2 -9 -9 -5
-10 3 -17 2 -17 -3 0 -6 -3 -9 -7 -8 -17 3 -63 -15 -58 -23 3 -4 -10 -7 -30
-5 -27 2 -39 -2 -46 -16 -12 -22 -29 -24 -29 -3 0 9 -9 15 -24 15 -33 0 -43
17 -14 23 16 3 14 4 -7 4 -32 -1 -55 9 -55 22 0 5 8 8 18 7 13 -1 17 6 15 31
-1 26 3 34 25 42 l27 11 -27 -5 c-28 -5 -39 9 -15 18 9 4 9 7 0 14 -8 5 -9 14
-3 23 5 8 12 11 16 7 4 -4 13 -2 20 4 11 9 9 15 -11 31 -28 22 -32 38 -11 38
18 0 47 40 39 53 -3 5 8 7 23 6 16 -2 38 2 49 8 11 6 37 14 58 18 20 4 34 11
31 16 -3 5 1 9 9 9 7 0 14 -6 14 -14z m390 -28 c-3 -8 -6 -5 -6 6 -1 11 2 17
5 13 3 -3 4 -12 1 -19z m-152 -148 c-3 -5 -11 -10 -16 -10 -6 0 -7 5 -4 10 3
6 11 10 16 10 6 0 7 -4 4 -10z m15 -44 c0 -3 -4 -8 -10 -11 -5 -3 -10 -1 -10
4 0 6 5 11 10 11 6 0 10 -2 10 -4z m24 -31 c-5 -12 -2 -14 12 -8 16 6 17 4 7
-9 -7 -8 -10 -18 -6 -21 3 -4 -7 -24 -23 -45 -16 -20 -36 -49 -43 -64 -8 -16
-18 -28 -23 -28 -5 0 -18 -9 -30 -20 -12 -10 -25 -17 -30 -14 -5 3 -14 1 -21
-4 -13 -10 -57 -23 -57 -16 0 2 20 13 44 24 24 12 68 45 98 74 43 42 54 60 54
85 0 38 -2 38 -28 5 -11 -14 -26 -23 -33 -20 -8 3 -19 -2 -26 -10 -10 -12 -9
-13 5 -8 23 9 20 -3 -4 -16 -18 -9 -20 -8 -20 14 0 20 7 27 28 32 15 4 43 20
62 36 40 33 41 33 34 13z m-27 -55 c-1 -12 -5 -16 -10 -11 -5 5 -6 14 -3 20
11 16 15 13 13 -9z m-112 -39 c-7 -12 -55 -10 -55 1 0 6 9 8 20 5 11 -3 20 -1
20 5 0 5 5 6 10 3 6 -4 8 -10 5 -14z m-105 -1 c0 -3 -10 -11 -21 -19 -18 -11
-23 -11 -30 1 -7 10 -9 8 -10 -7 0 -11 -3 -14 -6 -7 -9 23 4 37 36 37 17 0 31
-2 31 -5z m-270 -15 c7 -8 9 -15 4 -15 -5 0 -2 -5 6 -10 12 -7 12 -12 2 -22
-9 -9 -12 -9 -12 1 0 8 -6 11 -16 7 -8 -3 -13 -2 -10 3 3 5 -1 12 -10 15 -12
5 -13 8 -2 20 17 19 23 19 38 1z m280 -20 c-13 -14 -28 -25 -34 -25 -6 0 -24
-7 -39 -15 -15 -8 -34 -12 -42 -8 -17 6 -20 23 -5 23 6 0 10 -4 10 -10 0 -10
83 29 88 42 2 4 10 8 18 8 8 0 14 5 14 12 0 6 3 8 7 5 3 -4 -4 -18 -17 -32z
m690 19 c0 -8 -19 -13 -24 -6 -3 5 1 9 9 9 8 0 15 -2 15 -3z m-1045 -32 c-3
-3 -11 0 -18 7 -9 10 -8 11 6 5 10 -3 15 -9 12 -12z m425 -8 c0 -9 -13 -20
-28 -26 -26 -10 -60 -58 -41 -58 5 0 4 -9 -3 -20 -15 -23 -33 -27 -24 -5 4 11
-1 15 -17 15 -22 1 -22 1 -2 13 22 13 31 37 15 37 -6 0 -13 -7 -16 -15 -4 -8
-11 -15 -16 -15 -11 0 -54 -51 -51 -60 1 -3 -14 -5 -32 -6 -19 0 -32 3 -29 8
3 4 16 8 30 8 14 0 23 4 20 9 -4 5 0 12 6 14 8 4 7 6 -4 6 -9 1 -18 -4 -20
-10 -2 -5 -17 -11 -33 -12 -17 -2 -36 -6 -43 -11 -7 -4 -16 -5 -19 -2 -4 3 0
6 8 6 12 0 11 2 -1 11 -13 9 -12 10 3 5 24 -8 21 10 -5 29 l-23 17 27 -4 c20
-4 25 -2 20 10 -4 11 -1 14 11 9 8 -3 18 -1 21 6 4 7 4 2 2 -11 -4 -19 -1 -22
12 -17 9 4 36 10 60 12 30 4 42 10 38 19 -3 9 0 11 11 7 12 -5 14 -3 8 8 -7
11 -6 12 6 2 16 -13 59 -7 59 9 0 5 4 7 9 3 6 -3 16 1 23 9 17 19 18 19 18 0z
m93 -63 c-10 -10 -31 -21 -48 -25 -30 -7 -30 -7 -7 9 12 9 27 13 32 10 6 -4
10 -3 9 2 -3 17 1 23 16 23 13 0 13 -3 -2 -19z m607 -21 c-8 -5 -17 -7 -19 -4
-3 3 1 9 9 14 8 5 17 7 19 4 3 -3 -1 -9 -9 -14z m-715 -39 c-6 -5 -25 10 -25
20 0 5 6 4 14 -3 8 -7 12 -15 11 -17z m85 12 c-1 -14 -40 -56 -47 -49 -4 3 4
17 17 31 25 26 30 30 30 18z m-330 -33 c0 -5 -2 -10 -4 -10 -3 0 -8 5 -11 10
-3 6 -1 10 4 10 6 0 11 -4 11 -10z m260 -24 c0 -3 -4 -8 -10 -11 -5 -3 -10 -1
-10 4 0 6 5 11 10 11 6 0 10 -2 10 -4z"/>
<path d="M1908 1783 c6 -2 12 -11 12 -19 0 -8 5 -14 11 -14 6 0 8 7 5 16 -3 9
-6 18 -6 20 0 2 -8 4 -17 3 -11 0 -13 -3 -5 -6z"/>
<path d="M2700 860 c-8 -5 -10 -10 -5 -10 6 0 17 5 25 10 8 5 11 10 5 10 -5 0
-17 -5 -25 -10z"/>
<path d="M2770 830 c0 -5 5 -10 11 -10 5 0 7 5 4 10 -3 6 -8 10 -11 10 -2 0
-4 -4 -4 -10z"/>
<path d="M2650 480 c-18 -12 -2 -12 25 0 13 6 15 9 5 9 -8 0 -22 -4 -30 -9z"/>
<path d="M2751 367 c-7 -10 -4 -13 15 -15 26 -2 33 12 10 21 -8 3 -19 0 -25
-6z"/>
<path d="M2680 360 c0 -5 10 -10 23 -10 18 0 19 2 7 10 -19 13 -30 13 -30 0z"/>
<path d="M2833 353 c9 -2 23 -2 30 0 6 3 -1 5 -18 5 -16 0 -22 -2 -12 -5z"/>
<path d="M2648 343 c7 -3 16 -2 19 1 4 3 -2 6 -13 5 -11 0 -14 -3 -6 -6z"/>
<path d="M5440 4124 c0 -8 5 -12 10 -9 6 4 8 11 5 16 -9 14 -15 11 -15 -7z"/>
<path d="M3250 3630 c0 -5 7 -10 15 -10 8 0 15 5 15 10 0 6 -7 10 -15 10 -8 0
-15 -4 -15 -10z"/>
<path d="M3251 3592 c-6 -12 -5 -23 4 -35 16 -22 21 -22 28 3 3 14 0 20 -10
20 -13 0 -13 3 -3 15 8 10 9 15 2 15 -6 0 -16 -8 -21 -18z"/>
<path d="M2910 3589 c0 -5 6 -7 13 -3 8 5 7 2 -2 -10 -11 -13 -12 -19 -2 -29
10 -9 11 -8 6 5 -5 13 -2 15 17 11 13 -3 20 -2 16 2 -4 5 -3 14 3 22 9 10 5
13 -20 13 -17 0 -31 -5 -31 -11z"/>
<path d="M3043 3593 c-7 -3 -13 -16 -13 -29 0 -17 6 -24 20 -24 12 0 20 7 20
16 0 10 6 14 15 10 9 -3 15 0 15 10 0 8 -5 12 -10 9 -6 -4 -16 -2 -23 3 -7 5
-18 7 -24 5z"/>
<path d="M3326 3588 c-12 -40 -12 -55 0 -55 9 0 14 12 14 34 0 33 -7 44 -14
21z"/>
<path d="M3380 3508 c0 -4 11 -8 25 -8 14 0 25 4 25 10 0 5 -11 9 -25 8 -14
-1 -25 -6 -25 -10z"/>
<path d="M2800 3473 c0 -11 3 -14 8 -7 4 6 14 14 22 17 10 4 8 6 -7 6 -16 1
-23 -5 -23 -16z"/>
<path d="M2855 3480 c3 -5 12 -7 20 -4 8 3 20 2 27 -2 18 -12 -42 -23 -63 -13
-13 7 -16 3 -15 -19 l1 -27 155 0 154 0 7 25 c7 25 7 25 8 -3 l1 -28 108 4
c100 4 107 6 110 25 3 20 -1 21 -77 21 -44 0 -86 3 -93 7 -7 5 -46 10 -85 12
-58 3 -73 0 -73 -11 0 -18 -108 -10 -128 9 -15 16 -66 19 -57 4z"/>
<path d="M3398 3473 c7 -3 16 -2 19 1 4 3 -2 6 -13 5 -11 0 -14 -3 -6 -6z"/>
<path d="M3432 3469 c2 -10 -5 -13 -24 -11 -24 3 -28 0 -28 -21 0 -23 4 -25
45 -25 59 1 67 22 22 57 -16 12 -18 12 -15 0z"/>
<path d="M2528 3443 c7 -3 16 -2 19 1 4 3 -2 6 -13 5 -11 0 -14 -3 -6 -6z"/>
<path d="M2801 3434 c0 -11 3 -14 6 -6 3 7 2 16 -1 19 -3 4 -6 -2 -5 -13z"/>
<path d="M3850 3385 c0 -10 -9 -14 -30 -11 -16 2 -30 0 -30 -4 0 -5 -24 -8
-52 -7 -29 1 -78 0 -108 -1 -30 -2 -97 0 -147 4 -73 5 -93 4 -93 -6 0 -10 14
-11 55 -6 51 6 73 -4 43 -18 -7 -3 -2 -4 12 -2 14 3 73 8 132 12 91 6 108 4
113 -8 9 -23 115 17 115 43 0 11 -2 19 -5 19 -3 0 -5 -7 -5 -15z"/>
<path d="M2800 3373 c1 -21 20 -34 46 -31 l29 3 -34 18 c-39 19 -41 20 -41 10z"/>
<path d="M2975 3370 c-22 -9 -22 -10 18 -16 20 -3 27 -1 27 11 0 17 -14 18
-45 5z"/>
<path d="M3063 3374 c-28 -12 -11 -24 33 -24 32 0 44 4 42 13 -5 13 -54 20
-75 11z"/>
<path d="M3193 3372 c-52 -5 -38 -22 18 -22 34 0 49 4 47 12 -5 13 -19 15 -65
10z"/>
<path d="M2910 3360 c0 -5 7 -10 15 -10 8 0 15 5 15 10 0 6 -7 10 -15 10 -8 0
-15 -4 -15 -10z"/>
<path d="M3290 3360 c0 -5 14 -10 30 -10 17 0 30 5 30 10 0 6 -13 10 -30 10
-16 0 -30 -4 -30 -10z"/>
<path d="M5615 3334 c-67 -14 -110 -35 -190 -95 -87 -64 -155 -111 -198 -136
-11 -6 -41 -29 -66 -50 -25 -21 -61 -47 -81 -58 -79 -45 -100 -61 -100 -77 0
-42 150 -36 375 15 187 42 324 45 348 6 10 -17 24 -19 117 -19 88 0 110 3 135
20 16 11 50 22 75 26 25 4 47 10 50 14 7 10 97 52 140 65 l35 11 3 87 c3 96 5
93 -64 76 -33 -9 -56 -9 -82 -1 -20 6 -59 16 -85 23 -37 9 -52 19 -63 42 -15
29 -17 29 -70 23 -30 -3 -54 -2 -54 3 0 5 -17 9 -37 9 -21 0 -58 5 -83 11 -46
11 -70 12 -105 5z"/>
<path d="M3705 3320 c-19 -8 -19 -9 2 -9 12 -1 25 4 28 9 7 12 -2 12 -30 0z"/>
<path d="M3610 3280 c-19 -11 -46 -19 -60 -20 -46 -1 -70 -12 -70 -31 0 -16 5
-18 28 -13 15 4 32 11 38 16 6 4 36 22 65 38 30 16 50 30 44 29 -5 0 -26 -8
-45 -19z"/>
<path d="M3110 3251 c0 -23 5 -41 10 -41 6 0 10 15 10 34 0 19 -4 38 -10 41
-6 4 -10 -10 -10 -34z"/>
<path d="M2962 3255 c0 -16 2 -22 5 -12 2 9 2 23 0 30 -3 6 -5 -1 -5 -18z"/>
<path d="M3285 3240 c0 -22 3 -40 8 -40 4 0 7 18 7 40 0 22 -3 40 -7 40 -5 0
-8 -18 -8 -40z"/>
<path d="M3190 3210 c0 -5 5 -10 11 -10 5 0 7 5 4 10 -3 6 -8 10 -11 10 -2 0
-4 -4 -4 -10z"/>
<path d="M3055 3182 c-5 -4 -11 -17 -13 -29 -2 -17 2 -23 17 -23 15 0 19 6 19
30 -1 31 -6 35 -23 22z"/>
<path d="M3120 3161 c0 -12 6 -21 16 -21 9 0 14 7 12 17 -5 25 -28 28 -28 4z"/>
<path d="M3161 3144 c0 -11 3 -14 6 -6 3 7 2 16 -1 19 -3 4 -6 -2 -5 -13z"/>
<path d="M3128 3113 c6 -2 12 -16 12 -29 0 -13 3 -24 8 -24 4 0 7 14 7 30 0
24 -4 30 -20 29 -11 0 -14 -3 -7 -6z"/>
<path d="M3140 3030 c0 -5 5 -10 10 -10 6 0 10 5 10 10 0 6 -4 10 -10 10 -5 0
-10 -4 -10 -10z"/>
<path d="M6202 2697 c-39 -40 -40 -54 -7 -67 14 -5 25 -16 25 -23 0 -27 -27
-44 -100 -66 -76 -22 -102 -33 -130 -51 -14 -9 -107 -48 -180 -75 -45 -17 -44
-29 3 -33 29 -3 37 -7 37 -23 0 -10 -5 -19 -11 -19 -8 0 -8 -4 0 -14 9 -10 26
-13 62 -9 49 5 50 4 37 -16 -7 -12 -18 -21 -25 -21 -7 0 -13 -7 -13 -16 0 -9
-5 -12 -12 -8 -7 5 -8 3 -3 -6 6 -10 43 -12 177 -6 92 4 175 9 183 12 13 5 15
43 15 240 0 258 -1 260 -58 201z"/>
<path d="M4430 2111 c0 -10 39 -11 45 -2 2 5 -7 9 -20 9 -14 0 -25 -3 -25 -7z"/>
<path d="M4435 2050 c-16 -16 -25 -30 -19 -29 8 0 60 59 52 59 -3 0 -17 -13
-33 -30z"/>
<path d="M4043 1870 c-27 -11 -30 -25 -6 -34 10 -4 14 -4 11 0 -4 3 3 15 15
25 24 20 16 23 -20 9z"/>
<path d="M3973 1808 c-34 -37 -51 -66 -70 -118 -10 -29 -10 -32 1 -17 7 9 19
17 25 17 8 0 10 8 6 20 -7 21 20 70 39 70 15 0 56 46 49 54 -11 11 -19 6 -50
-26z"/>
<path d="M3836 1782 c-2 -4 -1 -14 4 -21 10 -17 31 -5 23 14 -6 16 -19 20 -27
7z"/>
<path d="M4608 1783 c7 -3 16 -2 19 1 4 3 -2 6 -13 5 -11 0 -14 -3 -6 -6z"/>
<path d="M4944 1759 c-18 -4 -2 -7 46 -8 102 -1 288 -19 325 -31 17 -5 75 -14
130 -20 55 -6 128 -18 163 -26 35 -7 77 -16 95 -19 18 -3 55 -9 82 -14 125
-22 130 -23 115 -12 -13 10 -13 11 0 12 8 1 -16 6 -55 10 -215 24 -279 37
-266 53 7 9 -10 11 -67 10 -45 -1 -115 6 -169 17 -98 21 -350 38 -399 28z"/>
<path d="M3790 1749 c0 -5 5 -7 10 -4 6 3 10 8 10 11 0 2 -4 4 -10 4 -5 0 -10
-5 -10 -11z"/>
<path d="M4025 1724 c-17 -19 -34 -41 -40 -47 -12 -15 -45 -73 -45 -80 0 -3
11 0 25 6 14 7 25 17 25 23 0 7 7 14 15 18 9 3 15 18 15 36 0 16 3 30 8 30 8
0 35 40 30 46 -2 2 -17 -13 -33 -32z"/>
<path d="M5775 1750 c-21 -5 -3 -8 60 -9 61 0 85 2 75 9 -17 11 -91 11 -135 0z"/>
<path d="M5520 1746 c0 -2 11 -6 25 -8 13 -3 22 -1 19 3 -5 9 -44 13 -44 5z"/>
<path d="M5615 1710 c-3 -5 1 -10 10 -10 9 0 13 5 10 10 -3 6 -8 10 -10 10 -2
0 -7 -4 -10 -10z"/>
<path d="M5720 1710 c-11 -8 -9 -9 13 -8 15 1 27 6 27 10 0 11 -22 10 -40 -2z"/>
<path d="M5790 1710 c-12 -8 -8 -10 15 -11 17 -1 46 -3 65 -5 22 -1 29 1 20 5
-27 15 -85 21 -100 11z"/>
<path d="M5916 1705 c-3 -8 -1 -15 4 -15 6 0 10 7 10 15 0 8 -2 15 -4 15 -2 0
-6 -7 -10 -15z"/>
<path d="M5947 1713 c-13 -12 -7 -23 13 -23 11 0 20 4 20 10 0 5 -7 6 -17 3
-11 -4 -14 -3 -9 5 8 13 3 16 -7 5z"/>
<path d="M6115 1692 c-3 -8 -5 -14 -5 -15 0 -1 34 -3 75 -5 68 -2 86 3 69 21
-3 3 -17 2 -30 -3 -17 -7 -24 -6 -24 3 0 17 -78 16 -85 -1z"/>
<path d="M6020 1686 c19 -7 43 -11 53 -8 26 7 18 10 -38 16 l-50 5 35 -13z"/>
<path d="M3818 1683 c7 -3 16 -2 19 1 4 3 -2 6 -13 5 -11 0 -14 -3 -6 -6z"/>
<path d="M5921 1652 c3 -10 33 -15 104 -18 55 -2 124 -9 154 -14 68 -12 81
-13 81 0 0 5 -17 12 -37 16 -21 4 -47 8 -58 11 -31 5 -207 5 -213 -1 -3 -3
-12 0 -20 7 -12 10 -14 9 -11 -1z"/>
<path d="M6225 1650 c3 -5 8 -10 11 -10 2 0 4 5 4 10 0 6 -5 10 -11 10 -5 0
-7 -4 -4 -10z"/>
<path d="M5410 1610 c-12 -8 -11 -10 7 -10 12 0 25 5 28 10 8 13 -15 13 -35 0z"/>
<path d="M5566 1599 c4 -7 95 -2 103 7 3 3 -20 4 -51 2 -31 -2 -54 -6 -52 -9z"/>
<path d="M6090 1594 c83 -19 164 -33 169 -28 14 12 -58 27 -184 39 -48 4 -48
4 15 -11z"/>
<path d="M5686 1591 c-17 -6 -15 -9 14 -21 28 -11 34 -12 38 -1 3 8 7 9 11 3
4 -7 15 -6 31 3 l25 14 -30 1 c-16 0 -39 2 -50 5 -11 2 -29 1 -39 -4z"/>
<path d="M5885 1570 c-11 -5 -42 -10 -70 -11 -33 -1 -40 -3 -20 -6 67 -9 309
-55 329 -63 41 -17 -25 -11 -125 10 -52 11 -129 21 -171 22 -43 1 -75 5 -72
10 5 8 -51 10 -225 10 -34 0 -49 3 -40 9 9 6 -3 9 -36 10 -27 1 -61 3 -75 4
-14 2 -31 -2 -39 -9 -12 -8 -13 -8 -7 2 5 8 0 12 -16 11 -26 -1 -79 -16 -63
-18 6 -1 3 -5 -4 -10 -12 -8 -9 -11 12 -16 15 -4 36 -5 47 -2 11 3 20 2 20 -2
0 -4 16 -8 36 -9 20 -2 50 -10 66 -18 16 -8 33 -12 38 -9 5 3 11 1 14 -4 4 -6
-11 -8 -34 -7 -57 4 -35 -19 28 -30 55 -9 51 -8 80 -18 12 -4 22 -11 22 -16 0
-5 -8 -7 -17 -3 -23 8 -15 -1 14 -16 20 -10 22 -9 16 6 -5 14 -1 13 16 -4 22
-23 38 -27 100 -25 18 1 41 -3 50 -8 10 -5 76 -14 147 -20 144 -12 255 -32
310 -55 20 -8 38 -15 40 -15 2 0 4 30 4 66 0 59 -2 65 -17 60 -17 -6 -17 -5 0
8 12 10 17 28 17 68 l0 55 -32 -3 c-29 -3 -30 -3 -8 4 l25 8 -22 8 c-31 10
-98 10 -115 0 -9 -5 -9 -3 2 11 14 17 13 17 -10 10 -14 -5 -33 -8 -42 -7 -39
4 -54 4 -74 -3 -13 -4 -27 -1 -37 9 -17 17 -32 22 -23 7 3 -5 -1 -11 -9 -14
-9 -4 -12 -1 -8 9 6 16 6 16 -22 4z m-264 -58 c-13 -2 -27 0 -32 5 -6 6 3 7
23 4 28 -4 29 -6 9 -9z m71 -9 c-6 -2 -9 -10 -5 -16 5 -8 2 -8 -9 0 -8 7 -18
10 -21 6 -4 -3 -7 -1 -7 5 0 7 12 12 28 11 15 0 21 -3 14 -6z m88 -34 c30 -12
65 -22 78 -21 12 0 22 -4 22 -9 0 -5 3 -8 8 -7 7 3 79 -12 157 -31 40 -10 40
-10 -10 -5 -76 8 -187 32 -227 48 -19 8 -38 12 -42 9 -3 -4 -6 -1 -6 5 0 7 -8
12 -17 12 -10 0 -25 5 -33 10 -28 18 11 12 70 -11z m397 5 c-3 -3 -12 -4 -19
-1 -8 3 -5 6 6 6 11 1 17 -2 13 -5z m-580 -40 c-3 -3 -12 -4 -19 -1 -8 3 -5 6
6 6 11 1 17 -2 13 -5z m80 -10 c-3 -3 -12 -4 -19 -1 -8 3 -5 6 6 6 11 1 17 -2
13 -5z"/>
<path d="M608 1513 c7 -3 16 -2 19 1 4 3 -2 6 -13 5 -11 0 -14 -3 -6 -6z"/>
<path d="M665 1480 l-50 -7 53 -1 c29 -1 52 2 52 8 0 6 -1 9 -2 8 -2 0 -25 -4
-53 -8z"/>
<path d="M578 1463 c6 -2 18 -2 25 0 6 3 1 5 -13 5 -14 0 -19 -2 -12 -5z"/>
<path d="M1130 1460 c12 -8 12 -10 -2 -15 -10 -4 -22 -4 -28 0 -5 3 -10 1 -10
-4 0 -13 30 -14 49 -2 15 10 7 31 -12 31 -7 0 -6 -4 3 -10z"/>
<path d="M1165 1440 c3 -5 8 -10 11 -10 2 0 4 5 4 10 0 6 -5 10 -11 10 -5 0
-7 -4 -4 -10z"/>
<path d="M363 1433 c9 -2 23 -2 30 0 6 3 -1 5 -18 5 -16 0 -22 -2 -12 -5z"/>
<path d="M194 1402 c3 -15 25 -32 41 -31 6 0 -1 6 -15 14 l-25 14 36 1 c22 0
42 -7 50 -17 13 -15 12 -15 -8 -4 -19 10 -22 9 -17 -4 4 -9 19 -15 38 -15 17
-1 56 -3 87 -6 36 -4 59 -2 63 5 4 6 16 11 27 11 10 0 19 5 19 10 0 6 -12 8
-27 5 -16 -2 -50 -7 -78 -10 -38 -4 -45 -3 -27 4 33 15 27 18 -25 15 -27 -1
-40 0 -30 2 35 11 15 19 -47 19 -48 0 -63 -3 -62 -13z"/>
<path d="M515 1410 c-18 -8 -17 -9 8 -9 16 -1 26 3 22 9 -3 6 -7 10 -8 9 -1 0
-11 -4 -22 -9z"/>
<path d="M1045 1409 c-4 -6 -5 -12 -2 -15 2 -3 7 2 10 11 7 17 1 20 -8 4z"/>
<path d="M5518 1413 c7 -3 16 -2 19 1 4 3 -2 6 -13 5 -11 0 -14 -3 -6 -6z"/>
<path d="M160 1400 c0 -5 5 -10 10 -10 6 0 10 5 10 10 0 6 -4 10 -10 10 -5 0
-10 -4 -10 -10z"/>
<path d="M638 1403 c7 -3 16 -2 19 1 4 3 -2 6 -13 5 -11 0 -14 -3 -6 -6z"/>
<path d="M778 1403 c7 -3 16 -2 19 1 4 3 -2 6 -13 5 -11 0 -14 -3 -6 -6z"/>
<path d="M131 1384 c0 -11 3 -14 6 -6 3 7 2 16 -1 19 -3 4 -6 -2 -5 -13z"/>
<path d="M590 1386 c0 -2 9 -6 20 -9 11 -3 18 -1 14 4 -5 9 -34 13 -34 5z"/>
<path d="M700 1379 c0 -5 5 -7 10 -4 6 3 10 8 10 11 0 2 -4 4 -10 4 -5 0 -10
-5 -10 -11z"/>
<path d="M916 1368 c3 -5 10 -6 15 -3 13 9 11 12 -6 12 -8 0 -12 -4 -9 -9z"/>
<path d="M1156 1368 c3 -5 10 -6 15 -3 13 9 11 12 -6 12 -8 0 -12 -4 -9 -9z"/>
<path d="M478 1362 c-16 -2 -28 -8 -28 -13 0 -6 5 -7 10 -4 6 4 18 1 27 -7 9
-7 14 -8 11 -2 -5 6 12 9 47 7 32 -1 57 2 61 9 5 8 -6 9 -38 5 -25 -3 -49 -3
-54 1 -5 4 -21 6 -36 4z"/>
<path d="M1058 1363 c7 -3 16 -2 19 1 4 3 -2 6 -13 5 -11 0 -14 -3 -6 -6z"/>
<path d="M1270 1362 c0 -4 16 -6 35 -4 19 2 35 6 35 8 0 2 -16 4 -35 4 -19 0
-35 -4 -35 -8z"/>
<path d="M760 1345 c-11 -13 -10 -14 4 -9 9 3 16 10 16 15 0 13 -6 11 -20 -6z"/>
<path d="M144 1338 c-4 -7 -2 -8 5 -4 6 4 18 2 26 -4 8 -7 15 -9 15 -5 0 4 7
2 15 -5 9 -7 18 -10 22 -6 3 3 1 6 -5 6 -19 0 -14 18 6 23 9 2 -4 4 -30 5 -27
0 -51 -4 -54 -10z"/>
<path d="M1115 1340 c-3 -5 -2 -10 4 -10 5 0 13 5 16 10 3 6 2 10 -4 10 -5 0
-13 -4 -16 -10z"/>
<path d="M1364 1329 c0 -13 3 -15 13 -7 7 6 13 12 13 13 0 2 -6 5 -13 8 -7 3
-13 -3 -13 -14z"/>
<path d="M378 1328 c5 -5 16 -8 23 -6 8 3 3 7 -10 11 -17 4 -21 3 -13 -5z"/>
<path d="M980 1325 c0 -8 6 -15 14 -15 22 0 28 17 10 24 -22 9 -24 8 -24 -9z"/>
<path d="M265 1320 c-27 -7 -28 -8 -5 -8 14 0 34 3 45 8 25 11 2 11 -40 0z"/>
<path d="M662 1315 c-16 -19 -4 -19 28 0 22 13 23 14 5 14 -11 0 -26 -6 -33
-14z"/>
<path d="M914 1319 c-3 -5 9 -9 25 -9 17 0 31 2 31 4 0 8 -51 13 -56 5z"/>
<path d="M1255 1320 c-4 -6 -22 -9 -41 -7 -19 3 -34 0 -34 -5 0 -5 20 -8 45
-7 29 2 45 7 45 16 0 16 -6 17 -15 3z"/>
<path d="M545 1310 c3 -5 8 -10 11 -10 2 0 4 5 4 10 0 6 -5 10 -11 10 -5 0 -7
-4 -4 -10z"/>
<path d="M745 1310 c-11 -4 -23 -6 -27 -3 -5 2 -8 -1 -8 -6 0 -14 47 -14 55 0
10 15 3 18 -20 9z"/>
<path d="M570 1302 c0 -4 16 -6 35 -4 19 2 35 6 35 8 0 2 -16 4 -35 4 -19 0
-35 -4 -35 -8z"/>
<path d="M289 1295 c-1 -3 -2 -9 -3 -14 0 -5 -4 -13 -8 -17 -13 -13 -9 -27 5
-17 6 5 25 10 40 11 35 2 64 27 42 36 -8 3 -14 0 -12 -6 3 -15 -28 -22 -51
-12 -14 6 -13 8 8 14 24 8 24 8 3 9 -13 1 -24 -1 -24 -4z"/>
<path d="M4040 1290 c19 -5 41 -4 50 0 10 6 -1 9 -35 9 -48 -1 -49 -1 -15 -9z"/>
<path d="M3938 1276 c-21 -5 -38 -13 -38 -18 0 -5 4 -7 9 -4 4 3 23 1 42 -4
38 -11 53 -2 36 20 -10 12 -20 13 -49 6z"/>
<path d="M1248 1273 c6 -2 18 -2 25 0 6 3 1 5 -13 5 -14 0 -19 -2 -12 -5z"/>
<path d="M1371 1271 c-10 -7 -7 -9 12 -8 14 1 23 5 20 10 -6 9 -15 9 -32 -2z"/>
<path d="M4130 1270 c0 -5 7 -7 15 -4 8 4 15 8 15 10 0 2 -7 4 -15 4 -8 0 -15
-4 -15 -10z"/>
<path d="M515 1263 c-31 -7 -40 -21 -11 -16 15 3 29 9 32 14 3 5 4 8 2 8 -2
-1 -12 -3 -23 -6z"/>
<path d="M1420 1255 c-11 -13 -10 -14 4 -9 9 3 16 10 16 15 0 13 -6 11 -20 -6z"/>
<path d="M423 1253 c9 -2 25 -2 35 0 9 3 1 5 -18 5 -19 0 -27 -2 -17 -5z"/>
<path d="M4164 1252 c10 -16 63 -25 83 -13 15 9 14 11 -12 10 -16 0 -41 3 -54
7 -16 5 -22 4 -17 -4z"/>
<path d="M225 1240 c3 -5 11 -10 16 -10 6 0 7 5 4 10 -3 6 -11 10 -16 10 -6 0
-7 -4 -4 -10z"/>
<path d="M1283 1236 c-4 -5 0 -7 9 -4 8 4 21 2 29 -3 11 -7 9 -9 -7 -9 -12 0
-24 -7 -28 -15 -6 -16 14 -21 30 -6 5 5 20 11 33 13 14 2 25 11 27 20 2 15 -5
17 -43 16 -24 -2 -47 -7 -50 -12z"/>
<path d="M330 1230 c0 -5 4 -10 9 -10 6 0 13 5 16 10 3 6 -1 10 -9 10 -9 0
-16 -4 -16 -10z"/>
<path d="M4145 1230 c3 -5 16 -10 28 -10 18 0 19 2 7 10 -20 13 -43 13 -35 0z"/>
<path d="M1080 1209 c0 -5 5 -7 10 -4 6 3 10 8 10 11 0 2 -4 4 -10 4 -5 0 -10
-5 -10 -11z"/>
<path d="M3910 1200 c0 -6 7 -10 15 -10 8 0 15 2 15 4 0 2 -7 6 -15 10 -8 3
-15 1 -15 -4z"/>
<path d="M1050 1190 c-8 -5 -24 -7 -35 -4 -11 4 -16 3 -12 -2 5 -5 26 -9 47
-9 30 0 36 2 28 12 -12 15 -9 15 -28 3z"/>
<path d="M545 1170 c-3 -5 -1 -10 4 -10 6 0 11 5 11 10 0 6 -2 10 -4 10 -3 0
-8 -4 -11 -10z"/>
<path d="M936 1173 c-4 -5 -15 -8 -24 -9 -41 -1 -113 -17 -119 -27 -4 -6 0 -8
10 -4 8 3 33 8 54 12 28 4 33 3 18 -4 -18 -8 -18 -10 -2 -10 10 -1 20 5 23 12
3 9 19 13 47 11 23 -1 32 0 19 3 -12 2 -20 9 -17 14 7 11 1 12 -9 2z"/>
<path d="M300 1160 c0 -5 18 -8 40 -8 49 0 47 6 -3 12 -20 3 -37 1 -37 -4z"/>
<path d="M435 1162 c-11 -4 -21 -13 -23 -21 -3 -12 0 -12 12 -2 8 7 19 10 24
7 5 -3 9 1 9 9 0 8 -1 15 -1 14 -1 -1 -10 -4 -21 -7z"/>
<path d="M470 1158 c0 -4 11 -7 25 -6 33 3 33 16 0 14 -14 0 -25 -4 -25 -8z"/>
<path d="M4248 1163 c-16 -2 -28 -10 -28 -17 0 -7 -19 -18 -42 -25 -24 -7 -51
-20 -61 -29 -20 -18 -70 -38 -134 -55 -33 -8 -40 -13 -32 -23 8 -10 1 -15 -32
-24 -24 -7 -56 -9 -71 -6 -16 3 -27 2 -23 -3 3 -5 -34 -13 -82 -17 -49 -4 -83
-9 -77 -11 15 -5 -6 -53 -22 -53 -7 0 -15 -7 -18 -16 -9 -24 -7 -28 9 -14 18
15 34 5 17 -12 -8 -8 -6 -17 8 -35 10 -13 16 -31 13 -41 -2 -10 5 -26 16 -36
29 -27 26 -43 -10 -51 -21 -5 -27 -10 -19 -15 8 -5 11 -19 7 -39 -5 -25 -4
-29 11 -25 11 4 9 -1 -7 -16 -20 -17 -22 -23 -11 -30 12 -7 11 -10 -5 -15 -51
-17 -51 -17 -36 -22 11 -5 11 -7 0 -14 -11 -7 -12 -11 -1 -17 7 -5 12 -13 11
-18 -1 -5 -1 -26 0 -46 1 -28 6 -38 22 -43 12 -4 18 -13 15 -20 -3 -9 0 -12 8
-9 21 8 30 -14 14 -33 -10 -14 -10 -15 0 -9 9 5 13 3 11 -5 -1 -8 1 -22 6 -32
5 -12 1 -25 -11 -38 -11 -12 -17 -24 -16 -28 2 -3 8 -14 13 -24 5 -9 20 -17
32 -17 12 0 17 -3 11 -8 -6 -4 -14 -15 -17 -26 -6 -14 -4 -17 9 -12 14 5 15 4
4 -9 -9 -11 -9 -15 -1 -15 8 0 9 -5 1 -19 -14 -27 -13 -34 6 -27 14 5 15 4 4
-9 -10 -12 -10 -15 1 -15 10 0 10 -3 1 -12 -7 -7 -12 -16 -12 -20 0 -4 569 -8
1265 -8 l1265 0 0 419 0 419 -27 5 c-16 3 -42 -1 -60 -10 -23 -11 -37 -12 -51
-4 -11 6 -34 13 -53 16 -18 3 -42 13 -51 22 -10 9 -18 13 -18 10 0 -3 -34 10
-76 29 -79 36 -122 42 -153 22 -15 -9 -24 -8 -43 4 -29 19 -54 25 -158 38
-117 14 -150 20 -186 35 -17 7 -50 16 -74 20 -51 9 -152 53 -163 72 -4 7 -13
13 -18 13 -6 0 -8 -4 -5 -9 8 -12 -29 -3 -79 19 -58 25 -98 34 -89 19 5 -9 1
-10 -15 -6 -17 4 -21 2 -17 -9 4 -11 -1 -10 -22 3 -25 17 -26 17 -13 0 12 -16
11 -16 -25 -3 -22 7 -39 19 -39 26 0 31 -166 17 -190 -17 -9 -13 -28 -16 -76
-16 -86 1 -186 17 -231 37 -21 9 -41 15 -45 15 -4 -1 -20 -4 -35 -6z"/>
<path d="M1048 1153 c7 -3 16 -2 19 1 4 3 -2 6 -13 5 -11 0 -14 -3 -6 -6z"/>
<path d="M365 1110 c-3 -6 1 -7 9 -4 18 7 21 14 7 14 -6 0 -13 -4 -16 -10z"/>
<path d="M740 1108 c-25 -5 -49 -15 -55 -22 -5 -7 -19 -12 -29 -10 -29 4 -76
-7 -76 -18 0 -5 9 -6 21 -3 18 6 20 4 14 -14 l-7 -22 37 21 c20 11 40 18 46
15 5 -3 6 0 3 8 -4 10 5 17 28 21 39 8 100 34 78 34 -8 0 -35 -4 -60 -10z"/>
<path d="M820 1095 c-14 -8 -33 -14 -42 -15 -10 0 -18 -5 -18 -11 0 -7 -11 -9
-27 -5 -16 3 -22 3 -14 -1 11 -5 11 -7 0 -14 -9 -6 -3 -8 18 -6 17 1 29 6 25
11 -3 5 5 7 16 4 12 -4 24 -3 27 2 2 4 18 10 35 13 18 4 30 13 30 22 0 19 -17
19 -50 0z"/>
<path d="M390 1090 c-9 -6 -10 -10 -3 -10 6 0 15 5 18 10 8 12 4 12 -15 0z"/>
<path d="M908 1093 c7 -3 16 -2 19 1 4 3 -2 6 -13 5 -11 0 -14 -3 -6 -6z"/>
<path d="M548 1073 c7 -3 16 -2 19 1 4 3 -2 6 -13 5 -11 0 -14 -3 -6 -6z"/>
<path d="M6090 1042 c19 -9 37 -19 40 -22 5 -5 19 -5 45 -1 12 2 -55 27 -94
35 -21 5 -20 2 9 -12z"/>
<path d="M630 1015 c-14 -8 -20 -14 -15 -14 6 0 21 6 35 14 14 8 21 14 15 14
-5 0 -21 -6 -35 -14z"/>
<path d="M6190 1019 c0 -7 35 -19 58 -19 28 0 9 18 -23 22 -19 2 -35 1 -35 -3z"/>
<path d="M5757 989 c7 -7 15 -10 18 -7 3 3 -2 9 -12 12 -14 6 -15 5 -6 -5z"/>
<path d="M3348 919 c-14 -15 -15 -18 -1 -23 27 -11 53 -6 53 9 0 8 -6 12 -14
9 -8 -3 -16 1 -18 8 -2 11 -7 10 -20 -3z"/>
<path d="M6228 914 c24 -17 39 -14 27 5 -3 6 -16 11 -28 11 l-21 0 22 -16z"/>
<path d="M3193 828 c-21 -22 -23 -27 -9 -22 12 5 17 4 13 -3 -4 -6 3 -10 18
-10 24 0 29 7 26 35 -1 6 2 12 8 12 5 0 12 -6 14 -12 4 -8 6 -7 6 3 2 31 -45
29 -76 -3z"/>
<path d="M3588 793 c7 -3 16 -2 19 1 4 3 -2 6 -13 5 -11 0 -14 -3 -6 -6z"/>
<path d="M3500 780 c0 -5 5 -10 11 -10 5 0 7 5 4 10 -3 6 -8 10 -11 10 -2 0
-4 -4 -4 -10z"/>
<path d="M3270 700 c19 -13 30 -13 30 0 0 6 -10 10 -22 10 -19 0 -20 -2 -8
-10z"/>
<path d="M3260 670 c8 -5 20 -10 25 -10 6 0 3 5 -5 10 -8 5 -19 10 -25 10 -5
0 -3 -5 5 -10z"/>
<path d="M3320 665 c33 -19 49 -19 24 0 -10 8 -26 14 -34 14 -9 0 -4 -6 10
-14z"/>
<path d="M3381 646 c2 -2 15 -9 29 -15 24 -11 24 -11 6 3 -16 13 -49 24 -35
12z"/>
<path d="M3585 520 c3 -5 8 -10 11 -10 2 0 4 5 4 10 0 6 -5 10 -11 10 -5 0 -7
-4 -4 -10z"/>
<path d="M3490 430 c0 -5 5 -10 11 -10 5 0 7 5 4 10 -3 6 -8 10 -11 10 -2 0
-4 -4 -4 -10z"/>
</g>
</svg>
